<svg xmlns="http://www.w3.org/2000/svg" xmlns:xlink="http://www.w3.org/1999/xlink" zoomAndPan="magnify" preserveAspectRatio="xMidYMid meet" version="1.0" viewBox="5.66 161.63 361.25 55.34"><defs><g/><clipPath id="287fb65710"><rect x="0" width="373" y="0" height="103"/></clipPath></defs><g transform="matrix(1, 0, 0, 1, 0, 136)"><g clip-path="url(#287fb65710)"><g fill="#ffffff" fill-opacity="1"><g transform="translate(2.5854, 81.703973)"><g><path d="M 58.984375 -0.84375 L 48.171875 -0.84375 L 48.171875 -28.0625 L 14.625 -28.0625 L 14.625 -0.84375 L 3.078125 -0.84375 L 3.078125 -55.28125 L 31.03125 -28.0625 L 58.984375 -55.28125 Z M 58.984375 -0.84375 "/></g></g></g><g fill="#ffffff" fill-opacity="1"><g transform="translate(64.204245, 81.703973)"><g><path d="M 56.234375 -16.921875 L 34.78125 -56.078125 L 5.375 -1.625 L 18.265625 -1.625 L 26.546875 -16.921875 Z M 56.234375 -16.921875 "/></g></g></g><g fill="#ffffff" fill-opacity="1"><g transform="translate(125.823089, 81.703973)"><g><path d="M 31.921875 -28.0625 L 48.34375 -28.0625 L 48.34375 -55.28125 L 59.875 -55.28125 L 59.875 -0.84375 Z M 31.03125 -28.0625 L 14.625 -28.0625 L 14.625 -0.84375 L 3.078125 -0.84375 L 3.078125 -55.28125 Z M 31.03125 -28.0625 "/></g></g></g><g fill="#ffffff" fill-opacity="1"><g transform="translate(187.441933, 81.703973)"><g><path d="M 58.09375 -28.015625 C 58.09375 -20.273438 55.476562 -13.789062 50.25 -8.5625 C 45.019531 -3.34375 38.539062 -0.734375 30.8125 -0.734375 C 24.644531 -0.734375 18.554688 -3.375 12.546875 -8.65625 C 6.535156 -13.9375 3.53125 -20.390625 3.53125 -28.015625 C 3.53125 -35.703125 6.148438 -42.164062 11.390625 -47.40625 C 16.640625 -52.65625 23.113281 -55.28125 30.8125 -55.28125 C 38.3125 -55.28125 44.734375 -52.640625 50.078125 -47.359375 C 55.421875 -42.078125 58.09375 -35.628906 58.09375 -28.015625 Z M 46.4375 -28.015625 C 46.4375 -31.816406 45.164062 -35.269531 42.625 -38.375 C 39.675781 -41.882812 35.847656 -43.640625 31.140625 -43.640625 C 26.992188 -43.640625 23.414062 -42.109375 20.40625 -39.046875 C 17.40625 -35.984375 15.90625 -32.304688 15.90625 -28.015625 C 15.90625 -24.390625 17.175781 -21.023438 19.71875 -17.921875 C 22.707031 -14.222656 26.515625 -12.375 31.140625 -12.375 C 35.285156 -12.375 38.867188 -13.882812 41.890625 -16.90625 C 44.921875 -19.9375 46.4375 -23.640625 46.4375 -28.015625 Z M 46.4375 -28.015625 "/></g></g></g><g fill="#ffffff" fill-opacity="1"><g transform="translate(249.060777, 81.703973)"><g><path d="M 58.09375 -0.84375 L 30.140625 -28.015625 L 15.40625 -28.015625 L 43.359375 -0.84375 Z M 14.5625 -28.015625 L 14.5625 -0.84375 L 2.859375 -0.84375 L 2.859375 -28.015625 Z M 58.09375 -28.015625 L 46.375 -28.015625 C 46.375 -31.816406 45.125 -35.269531 42.625 -38.375 C 39.675781 -41.882812 35.847656 -43.640625 31.140625 -43.640625 L 8.6875 -43.640625 L 8.6875 -55.28125 L 30.8125 -55.28125 C 38.3125 -55.28125 44.734375 -52.640625 50.078125 -47.359375 C 55.421875 -42.078125 58.09375 -35.628906 58.09375 -28.015625 Z M 58.09375 -28.015625 "/></g></g></g><g fill="#ffffff" fill-opacity="1"><g transform="translate(310.679621, 81.703973)"><g><path d="M 56.234375 -16.921875 L 34.78125 -56.078125 L 5.375 -1.625 L 18.265625 -1.625 L 26.546875 -16.921875 Z M 56.234375 -16.921875 "/></g></g></g></g></g></svg>